<svg xmlns="http://www.w3.org/2000/svg" xmlns:xlink="http://www.w3.org/1999/xlink" width="553.926" height="535.895" viewBox="0 0 553.926 535.895">
  <defs>
    <filter id="타원_22" x="276.572" y="90.982" width="277.354" height="277.354" filterUnits="userSpaceOnUse">
      <feOffset dy="3" input="SourceAlpha"/>
      <feGaussianBlur stdDeviation="3" result="blur"/>
      <feFlood flood-opacity="0.161"/>
      <feComposite operator="in" in2="blur"/>
      <feComposite in="SourceGraphic"/>
    </filter>
    <filter id="사각형_107" x="149.713" y="211.612" width="324.283" height="324.283" filterUnits="userSpaceOnUse">
      <feOffset dy="3" input="SourceAlpha"/>
      <feGaussianBlur stdDeviation="3" result="blur-2"/>
      <feFlood flood-opacity="0.161"/>
      <feComposite operator="in" in2="blur-2"/>
      <feComposite in="SourceGraphic"/>
    </filter>
    <filter id="다각형_6" x="0" y="0" width="424.249" height="376.829" filterUnits="userSpaceOnUse">
      <feOffset dy="3" input="SourceAlpha"/>
      <feGaussianBlur stdDeviation="3" result="blur-3"/>
      <feFlood flood-opacity="0.161"/>
      <feComposite operator="in" in2="blur-3"/>
      <feComposite in="SourceGraphic"/>
    </filter>
  </defs>
  <g id="그룹_279" data-name="그룹 279" transform="translate(-961 -2577.333)">
    <g transform="matrix(1, 0, 0, 1, 961, 2577.33)" filter="url(#타원_22)">
      <ellipse id="타원_22-2" data-name="타원 22" cx="129.677" cy="129.677" rx="129.677" ry="129.677" transform="translate(285.57 96.98)" fill="#4ed644" opacity="0.6"/>
    </g>
    <g transform="matrix(1, 0, 0, 1, 961, 2577.33)" filter="url(#사각형_107)">
      <rect id="사각형_107-2" data-name="사각형 107" width="230.474" height="230.474" rx="5" transform="translate(256.12 217.61) rotate(25)" fill="#ffde00" opacity="0.6"/>
    </g>
    <g transform="matrix(1, 0, 0, 1, 961, 2577.33)" filter="url(#다각형_6)">
      <path id="다각형_6-2" data-name="다각형 6" d="M166.043,6.6a5,5,0,0,1,8.428,0L335.6,258.965a5,5,0,0,1-4.214,7.691H9.125a5,5,0,0,1-4.214-7.691Z" transform="translate(91.4 6) rotate(18)" fill="#f87474" opacity="0.6"/>
    </g>
  </g>
</svg>
