<svg xmlns="http://www.w3.org/2000/svg" width="765" height="520" viewBox="0 0 765 520">
  <g id="그룹_249" data-name="그룹 249" transform="translate(-571 -910)">
    <g id="그룹_246" data-name="그룹 246" transform="translate(2 -2003)">
      <g id="그룹_236" data-name="그룹 236" transform="translate(6 1)">
        <rect id="사각형_230" data-name="사각형 230" width="145" height="40" rx="20" transform="translate(570 3127)" fill="#ebebeb"/>
        <text id="검수정보" transform="translate(643 3151)" fill="#555" font-size="14" font-family="NanumSquareOTFR, NanumSquareOTF"><tspan x="-25.48" y="0">검수정보</tspan></text>
      </g>
      <g id="그룹_237" data-name="그룹 237" transform="translate(6 -8)">
        <rect id="사각형_231" data-name="사각형 231" width="145" height="40" rx="20" transform="translate(570 3186)" fill="#ebebeb"/>
        <text id="상품정보" transform="translate(643 3210)" fill="#555" font-size="14" font-family="NanumSquareOTFR, NanumSquareOTF"><tspan x="-25.48" y="0">상품정보</tspan></text>
      </g>
    </g>
    <g id="그룹_244" data-name="그룹 244" transform="translate(-5 -1990)">
      <g id="그룹_238" data-name="그룹 238" transform="translate(83 -227)">
        <rect id="사각형_230-2" data-name="사각형 230" width="145" height="40" rx="20" transform="translate(570 3127)" fill="#ebebeb"/>
        <text id="프로모션" transform="translate(643 3151)" fill="#555" font-size="14" font-family="NanumSquareOTFR, NanumSquareOTF"><tspan x="-25.48" y="0">프로모션</tspan></text>
      </g>
      <g id="그룹_239" data-name="그룹 239" transform="translate(238 -227)">
        <rect id="사각형_230-3" data-name="사각형 230" width="145" height="40" rx="20" transform="translate(570 3127)" fill="#ebebeb"/>
        <text id="모상품" transform="translate(643 3151)" fill="#555" font-size="14" font-family="NanumSquareOTFR, NanumSquareOTF"><tspan x="-19.11" y="0">모상품</tspan></text>
      </g>
      <g id="그룹_240" data-name="그룹 240" transform="translate(393 -227)">
        <rect id="사각형_230-4" data-name="사각형 230" width="145" height="40" rx="20" transform="translate(570 3127)" fill="#ebebeb"/>
        <text id="자상품" transform="translate(643 3151)" fill="#555" font-size="14" font-family="NanumSquareOTFR, NanumSquareOTF"><tspan x="-19.11" y="0">자상품</tspan></text>
      </g>
      <g id="그룹_241" data-name="그룹 241" transform="translate(548 -227)">
        <rect id="사각형_230-5" data-name="사각형 230" width="145" height="40" rx="20" transform="translate(570 3127)" fill="#ebebeb"/>
        <text id="FAQ" transform="translate(643 3151)" fill="#555" font-size="14" font-family="NanumSquareOTFR, NanumSquareOTF"><tspan x="-12.971" y="0">FAQ</tspan></text>
      </g>
    </g>
    <g id="그룹_247" data-name="그룹 247" transform="translate(-130 -1978)">
      <g id="그룹_243" data-name="그룹 243" transform="translate(745 -149)">
        <rect id="사각형_230-6" data-name="사각형 230" width="145" height="40" rx="20" transform="translate(570 3127)" fill="#ebebeb"/>
        <text id="예약자정보" transform="translate(643 3151)" fill="#555" font-size="14" font-family="NanumSquareOTFR, NanumSquareOTF"><tspan x="-31.85" y="0">예약자정보</tspan></text>
      </g>
      <g id="그룹_243-2" data-name="그룹 243" transform="translate(745 -99)">
        <rect id="사각형_230-7" data-name="사각형 230" width="145" height="40" rx="20" transform="translate(570 3127)" fill="#ebebeb"/>
        <text id="일행정보" transform="translate(643 3151)" fill="#555" font-size="14" font-family="NanumSquareOTFR, NanumSquareOTF"><tspan x="-25.48" y="0">일행정보</tspan></text>
      </g>
      <g id="그룹_243-3" data-name="그룹 243" transform="translate(745 -49)">
        <rect id="사각형_230-8" data-name="사각형 230" width="145" height="40" rx="20" transform="translate(570 3127)" fill="#ebebeb"/>
        <text id="결제정보" transform="translate(643 3151)" fill="#555" font-size="14" font-family="NanumSquareOTFR, NanumSquareOTF"><tspan x="-25.48" y="0">결제정보</tspan></text>
      </g>
      <g id="그룹_243-4" data-name="그룹 243" transform="translate(745 1)">
        <rect id="사각형_230-9" data-name="사각형 230" width="145" height="40" rx="20" transform="translate(570 3127)" fill="#ebebeb"/>
        <text id="상품정보-2" data-name="상품정보" transform="translate(643 3151)" fill="#555" font-size="14" font-family="NanumSquareOTFR, NanumSquareOTF"><tspan x="-25.48" y="0">상품정보</tspan></text>
      </g>
      <g id="그룹_243-5" data-name="그룹 243" transform="translate(745 51)">
        <rect id="사각형_230-10" data-name="사각형 230" width="145" height="40" rx="20" transform="translate(570 3127)" fill="#ebebeb"/>
        <text id="알림" transform="translate(643 3151)" fill="#555" font-size="14" font-family="NanumSquareOTFR, NanumSquareOTF"><tspan x="-12.74" y="0">알림</tspan></text>
      </g>
      <g id="그룹_243-6" data-name="그룹 243" transform="translate(745 101)">
        <rect id="사각형_230-11" data-name="사각형 230" width="145" height="40" rx="20" transform="translate(570 3127)" fill="#ebebeb"/>
        <text id="콜백" transform="translate(643 3151)" fill="#555" font-size="14" font-family="NanumSquareOTFR, NanumSquareOTF"><tspan x="-12.74" y="0">콜백</tspan></text>
      </g>
      <g id="그룹_243-7" data-name="그룹 243" transform="translate(745 151)">
        <rect id="사각형_230-12" data-name="사각형 230" width="145" height="40" rx="20" transform="translate(570 3127)" fill="#ebebeb"/>
        <text id="Q_A" data-name="Q&amp;A" transform="translate(643 3151)" fill="#555" font-size="14" font-family="NanumSquareOTFR, NanumSquareOTF"><tspan x="-14.098" y="0">Q&amp;A</tspan></text>
      </g>
    </g>
    <g id="그룹_245" data-name="그룹 245" transform="translate(-77 -1998)">
      <g id="그룹_238-2" data-name="그룹 238" transform="translate(78 261)">
        <rect id="사각형_230-13" data-name="사각형 230" width="145" height="40" rx="20" transform="translate(570 3127)" fill="#ebebeb"/>
        <text id="코드" transform="translate(643 3151)" fill="#555" font-size="14" font-family="NanumSquareOTFR, NanumSquareOTF"><tspan x="-12.74" y="0">코드</tspan></text>
      </g>
      <g id="그룹_238-3" data-name="그룹 238" transform="translate(233 261)">
        <rect id="사각형_230-14" data-name="사각형 230" width="145" height="40" rx="20" transform="translate(570 3127)" fill="#ebebeb"/>
        <text id="계정" transform="translate(643 3151)" fill="#555" font-size="14" font-family="NanumSquareOTFR, NanumSquareOTF"><tspan x="-12.74" y="0">계정</tspan></text>
      </g>
      <g id="그룹_238-4" data-name="그룹 238" transform="translate(388 261)">
        <rect id="사각형_230-15" data-name="사각형 230" width="145" height="40" rx="20" transform="translate(570 3127)" fill="#ebebeb"/>
        <text id="권한" transform="translate(643 3151)" fill="#555" font-size="14" font-family="NanumSquareOTFR, NanumSquareOTF"><tspan x="-12.74" y="0">권한</tspan></text>
      </g>
      <g id="그룹_238-5" data-name="그룹 238" transform="translate(543 261)">
        <rect id="사각형_230-16" data-name="사각형 230" width="145" height="40" rx="20" transform="translate(570 3127)" fill="#ebebeb"/>
        <text id="알림-2" data-name="알림" transform="translate(643 3151)" fill="#555" font-size="14" font-family="NanumSquareOTFR, NanumSquareOTF"><tspan x="-12.74" y="0">알림</tspan></text>
      </g>
      <g id="그룹_238-6" data-name="그룹 238" transform="translate(698 261)">
        <rect id="사각형_230-17" data-name="사각형 230" width="145" height="40" rx="20" transform="translate(570 3127)" fill="#ebebeb"/>
        <text id="요청게시판" transform="translate(643 3151)" fill="#555" font-size="14" font-family="NanumSquareOTFR, NanumSquareOTF"><tspan x="-31.85" y="0">요청게시판</tspan></text>
      </g>
    </g>
    <path id="패스_222" data-name="패스 222" d="M8690,3000v21h463.333v-21" transform="translate(-7967 -2050)" fill="none" stroke="#ebebeb" stroke-width="1" opacity="0.5"/>
    <line id="선_52" data-name="선 52" y2="21" transform="translate(879.5 950.5)" fill="none" stroke="#707070" stroke-width="1"/>
    <line id="선_53" data-name="선 53" y2="21" transform="translate(1031.5 950.5)" fill="none" stroke="#707070" stroke-width="1"/>
    <line id="선_54" data-name="선 54" y2="419" transform="translate(953.5 971.5)" fill="none" stroke="#707070" stroke-width="1"/>
    <line id="선_55" data-name="선 55" x2="439" transform="translate(746.5 1170.5)" fill="none" stroke="#707070" stroke-width="1"/>
    <path id="패스_223" data-name="패스 223" d="M8690,3194h23.333v52.667H8690" transform="translate(-7967 -2050)" fill="none" stroke="#707070" stroke-width="1"/>
    <path id="패스_224" data-name="패스 224" d="M8713.332,3194H8690v302h23.333" transform="translate(-7528.332 -2173.333)" fill="none" stroke="#707070" stroke-width="1"/>
    <line id="선_56" data-name="선 56" x1="24" transform="translate(1161.5 1071.5)" fill="none" stroke="#707070" stroke-width="1"/>
    <line id="선_57" data-name="선 57" x1="24" transform="translate(1161.5 1122.5)" fill="none" stroke="#707070" stroke-width="1"/>
    <line id="선_58" data-name="선 58" x1="24" transform="translate(1161.5 1220.5)" fill="none" stroke="#707070" stroke-width="1"/>
    <line id="선_59" data-name="선 59" x1="24" transform="translate(1161.5 1272.5)" fill="none" stroke="#707070" stroke-width="1"/>
    <path id="패스_225" data-name="패스 225" d="M8690,3021v-21h617.333v21" transform="translate(-8046.333 -1630.5)" fill="none" stroke="#ebebeb" stroke-width="1" opacity="0.5"/>
    <line id="선_60" data-name="선 60" y2="21" transform="translate(799.5 1369.5)" fill="none" stroke="#707070" stroke-width="1"/>
    <line id="선_61" data-name="선 61" y2="21" transform="translate(1109.5 1369.5)" fill="none" stroke="#707070" stroke-width="1"/>
    <g id="그룹_248" data-name="그룹 248" transform="translate(-8 -2008)">
      <g id="패스_226" data-name="패스 226" transform="translate(911 2998)" fill="#fff">
        <path d="M 50 99.5 C 43.31732177734375 99.5 36.83480072021484 98.19129180908203 30.73251914978027 95.61025238037109 C 24.8381462097168 93.11714935302734 19.54437255859375 89.54794311523438 14.99821376800537 85.00178527832031 C 10.45205307006836 80.45562744140625 6.882853507995605 75.16184997558594 4.38974666595459 69.26747894287109 C 1.808706641197205 63.16519927978516 0.5 56.68267822265625 0.5 50 C 0.5 43.31732177734375 1.808706641197205 36.83480072021484 4.38974666595459 30.73251914978027 C 6.882853507995605 24.8381462097168 10.45205307006836 19.54437255859375 14.99821376800537 14.99821376800537 C 19.54437255859375 10.45205307006836 24.8381462097168 6.882853507995605 30.73251914978027 4.38974666595459 C 36.83480072021484 1.808706641197205 43.31732177734375 0.5 50 0.5 C 56.68267822265625 0.5 63.16519927978516 1.808706641197205 69.26747894287109 4.38974666595459 C 75.16184997558594 6.882853507995605 80.45562744140625 10.45205307006836 85.00178527832031 14.99821376800537 C 89.54794311523438 19.54437255859375 93.11714935302734 24.8381462097168 95.61025238037109 30.73251914978027 C 98.19129180908203 36.83480072021484 99.5 43.31732177734375 99.5 50 C 99.5 56.68267822265625 98.19129180908203 63.16519927978516 95.61025238037109 69.26747894287109 C 93.11714935302734 75.16184997558594 89.54794311523438 80.45562744140625 85.00178527832031 85.00178527832031 C 80.45562744140625 89.54794311523438 75.16184997558594 93.11714935302734 69.26747894287109 95.61025238037109 C 63.16519927978516 98.19129180908203 56.68267822265625 99.5 50 99.5 Z" stroke="none"/>
        <path d="M 50 1 C 43.38460159301758 1 36.96761322021484 2.29541015625 30.92729187011719 4.850250244140625 C 25.09253692626953 7.318145751953125 19.85215759277344 10.85137176513672 15.35177612304688 15.35177612304688 C 10.85137176513672 19.85215759277344 7.318145751953125 25.09253692626953 4.850250244140625 30.92729187011719 C 2.29541015625 36.96761322021484 1 43.38460159301758 1 50 C 1 56.61539840698242 2.29541015625 63.03238677978516 4.850250244140625 69.07270812988281 C 7.318145751953125 74.907470703125 10.85137176513672 80.14784240722656 15.35177612304688 84.64822387695312 C 19.85215759277344 89.14862823486328 25.09253692626953 92.68185424804688 30.92729187011719 95.14974975585938 C 36.96761322021484 97.70458984375 43.38460159301758 99 50 99 C 56.61539840698242 99 63.03238677978516 97.70458984375 69.07270812988281 95.14974975585938 C 74.907470703125 92.68185424804688 80.14784240722656 89.14862823486328 84.64822387695312 84.64822387695312 C 89.14862823486328 80.14784240722656 92.68185424804688 74.907470703125 95.14974975585938 69.07270812988281 C 97.70458984375 63.03238677978516 99 56.61539840698242 99 50 C 99 43.38460159301758 97.70458984375 36.96761322021484 95.14974975585938 30.92729187011719 C 92.68185424804688 25.09253692626953 89.14862823486328 19.85215759277344 84.64822387695312 15.35177612304688 C 80.14784240722656 10.85137176513672 74.907470703125 7.318145751953125 69.07270812988281 4.850250244140625 C 63.03238677978516 2.29541015625 56.61539840698242 1 50 1 M 50 0 C 77.61424255371094 0 100 22.38575744628906 100 50 C 100 77.61424255371094 77.61424255371094 100 50 100 C 22.38575744628906 100 0 77.61424255371094 0 50 C 0 22.38575744628906 22.38575744628906 0 50 0 Z" stroke="none" fill="#6a64d9"/>
      </g>
      <text id="상품" transform="translate(961 3053)" fill="#6a64d9" font-size="15" font-family="NanumSquareOTFR, NanumSquareOTF"><tspan x="-13.65" y="0">상품</tspan></text>
      <circle id="타원_39" data-name="타원 39" cx="50" cy="50" r="50" transform="translate(911 3128)" fill="#6a64d9"/>
      <text id="플랫폼" transform="translate(961 3183)" fill="#f5f5f5" font-size="15" font-family="NanumSquareOTFR, NanumSquareOTF"><tspan x="-20.475" y="0">플랫폼</tspan></text>
      <g id="패스_227" data-name="패스 227" transform="translate(911 3258)" fill="#fff">
        <path d="M 50 99.5 C 43.31732177734375 99.5 36.83480072021484 98.19129180908203 30.73251914978027 95.61025238037109 C 24.8381462097168 93.11714935302734 19.54437255859375 89.54794311523438 14.99821376800537 85.00178527832031 C 10.45205307006836 80.45562744140625 6.882853507995605 75.16184997558594 4.38974666595459 69.26747894287109 C 1.808706641197205 63.16519927978516 0.5 56.68267822265625 0.5 50 C 0.5 43.31732177734375 1.808706641197205 36.83480072021484 4.38974666595459 30.73251914978027 C 6.882853507995605 24.8381462097168 10.45205307006836 19.54437255859375 14.99821376800537 14.99821376800537 C 19.54437255859375 10.45205307006836 24.8381462097168 6.882853507995605 30.73251914978027 4.38974666595459 C 36.83480072021484 1.808706641197205 43.31732177734375 0.5 50 0.5 C 56.68267822265625 0.5 63.16519927978516 1.808706641197205 69.26747894287109 4.38974666595459 C 75.16184997558594 6.882853507995605 80.45562744140625 10.45205307006836 85.00178527832031 14.99821376800537 C 89.54794311523438 19.54437255859375 93.11714935302734 24.8381462097168 95.61025238037109 30.73251914978027 C 98.19129180908203 36.83480072021484 99.5 43.31732177734375 99.5 50 C 99.5 56.68267822265625 98.19129180908203 63.16519927978516 95.61025238037109 69.26747894287109 C 93.11714935302734 75.16184997558594 89.54794311523438 80.45562744140625 85.00178527832031 85.00178527832031 C 80.45562744140625 89.54794311523438 75.16184997558594 93.11714935302734 69.26747894287109 95.61025238037109 C 63.16519927978516 98.19129180908203 56.68267822265625 99.5 50 99.5 Z" stroke="none"/>
        <path d="M 50 1 C 43.38460159301758 1 36.96761322021484 2.29541015625 30.92729187011719 4.850250244140625 C 25.09253692626953 7.318145751953125 19.85215759277344 10.85137176513672 15.35177612304688 15.35177612304688 C 10.85137176513672 19.85215759277344 7.318145751953125 25.09253692626953 4.850250244140625 30.92729187011719 C 2.29541015625 36.96761322021484 1 43.38460159301758 1 50 C 1 56.61539840698242 2.29541015625 63.03238677978516 4.850250244140625 69.07270812988281 C 7.318145751953125 74.907470703125 10.85137176513672 80.14784240722656 15.35177612304688 84.64822387695312 C 19.85215759277344 89.14862823486328 25.09253692626953 92.68185424804688 30.92729187011719 95.14974975585938 C 36.96761322021484 97.70458984375 43.38460159301758 99 50 99 C 56.61539840698242 99 63.03238677978516 97.70458984375 69.07270812988281 95.14974975585938 C 74.907470703125 92.68185424804688 80.14784240722656 89.14862823486328 84.64822387695312 84.64822387695312 C 89.14862823486328 80.14784240722656 92.68185424804688 74.907470703125 95.14974975585938 69.07270812988281 C 97.70458984375 63.03238677978516 99 56.61539840698242 99 50 C 99 43.38460159301758 97.70458984375 36.96761322021484 95.14974975585938 30.92729187011719 C 92.68185424804688 25.09253692626953 89.14862823486328 19.85215759277344 84.64822387695312 15.35177612304688 C 80.14784240722656 10.85137176513672 74.907470703125 7.318145751953125 69.07270812988281 4.850250244140625 C 63.03238677978516 2.29541015625 56.61539840698242 1 50 1 M 50 0 C 77.61424255371094 0 100 22.38575744628906 100 50 C 100 77.61424255371094 77.61424255371094 100 50 100 C 22.38575744628906 100 0 77.61424255371094 0 50 C 0 22.38575744628906 22.38575744628906 0 50 0 Z" stroke="none" fill="#6a64d9"/>
      </g>
      <text id="시스템" transform="translate(961 3313)" fill="#6a64d9" font-size="15" font-family="NanumSquareOTFR, NanumSquareOTF"><tspan x="-20.475" y="0">시스템</tspan></text>
      <g id="타원_41" data-name="타원 41" transform="translate(1141 3228) rotate(180)" fill="#fff" stroke="#6a64d9" stroke-width="1">
        <circle cx="50" cy="50" r="50" stroke="none"/>
        <circle cx="50" cy="50" r="49.5" fill="none"/>
      </g>
      <g id="타원_42" data-name="타원 42" transform="translate(881 3228) rotate(180)" fill="#fff" stroke="#6a64d9" stroke-width="1">
        <circle cx="50" cy="50" r="50" stroke="none"/>
        <circle cx="50" cy="50" r="49.5" fill="none"/>
      </g>
      <text id="검수" transform="translate(831 3183)" fill="#6a64d9" font-size="15" font-family="NanumSquareOTFR, NanumSquareOTF"><tspan x="-13.65" y="0">검수</tspan></text>
      <text id="예약" transform="translate(1091 3183)" fill="#6a64d9" font-size="15" font-family="NanumSquareOTFR, NanumSquareOTF"><tspan x="-13.65" y="0">예약</tspan></text>
    </g>
  </g>
</svg>
